<svg width="32" height="32" viewBox="0 0 32 32" fill="none" xmlns="http://www.w3.org/2000/svg">
  <!-- Background circle -->
  <circle cx="16" cy="16" r="16" fill="#059669"/>
  
  <!-- Stethoscope icon -->
  <path d="M10 10C10 8.89543 10.8954 8 12 8H20C21.1046 8 22 8.89543 22 10V12C22 13.1046 21.1046 14 20 14H12C10.8954 14 10 13.1046 10 12V10Z" fill="white"/>
  <path d="M8 14C8 12.8954 8.89543 12 10 12H22C23.1046 12 24 12.8954 24 14V16C24 17.1046 23.1046 18 22 18H10C8.89543 18 8 17.1046 8 16V14Z" fill="white"/>
  <path d="M6 18C6 16.8954 6.89543 16 8 16H24C25.1046 16 26 16.8954 26 18V20C26 21.1046 25.1046 22 24 22H8C6.89543 22 6 21.1046 6 20V18Z" fill="white"/>
  <path d="M4 22C4 20.8954 4.89543 20 6 20H26C27.1046 20 28 20.8954 28 22V24C28 25.1046 27.1046 26 26 26H6C4.89543 26 4 25.1046 4 24V22Z" fill="white"/>
</svg> 